<?xml version="1.0" encoding="UTF-8" standalone="no"?> <!-- Created with Vectornator for iOS (http://vectornator.io/) --><!DOCTYPE svg PUBLIC "-//W3C//DTD SVG 1.1//EN" "http://www.w3.org/Graphics/SVG/1.1/DTD/svg11.dtd">
<svg height="100%" style="fill-rule:nonzero;clip-rule:evenodd;stroke-linecap:round;stroke-linejoin:round;" xmlns:xlink="http://www.w3.org/1999/xlink" xmlns="http://www.w3.org/2000/svg" xml:space="preserve" width="100%" xmlns:vectornator="http://vectornator.io" version="1.1" viewBox="0 0 1024 1024">
<metadata>
<vectornator:setting key="SnapToPoints" value="0"/>
<vectornator:setting key="TimeLapseWatermarkDisabled" value="0"/>
<vectornator:setting key="OutlineMode" value="0"/>
<vectornator:setting key="IsolateActiveLayer" value="0"/>
<vectornator:setting key="DynamicGuides" value="0"/>
<vectornator:setting key="CMYKEnabledKey" value="0"/>
<vectornator:setting key="PencilOnly" value="0"/>
<vectornator:setting key="DisplayWhiteBackground" value="0"/>
<vectornator:setting key="SnapToEdges" value="0"/>
<vectornator:setting key="RulersVisible" value="1"/>
<vectornator:setting key="GuidesVisible" value="1"/>
<vectornator:setting key="SnapToGrid" value="0"/>
<vectornator:setting key="Units" value="Pixels"/>
<vectornator:setting key="SnapToGuides" value="1"/>
<vectornator:setting key="DimensionsVisible" value="1"/>
<vectornator:setting key="doHistoryDisabled" value="0"/>
</metadata>
<defs>
<linearGradient y1="510.881" id="LinearGradient" x1="6.05627" y2="510.881" x2="1018.41" gradientUnits="userSpaceOnUse" gradientTransform="matrix(1 0 0 1 0 0)">
<stop stop-color="#bff2ff" offset="0.00554907"/>
<stop stop-color="#f8b2ff" offset="0.965191"/>
</linearGradient>
</defs>
<g id="Layer 1" vectornator:layerName="Layer 1">
<path stroke="#000000" stroke-width="10" d="M575.788+32.5531L991.829+446.562C1027.23+481.786+1027.28+538.953+991.956+574.248L576.742+989.081C541.415+1024.38+484.081+1024.43+448.683+989.208L32.6418+575.2C-2.75578+539.975-2.8128+482.808+32.5144+447.513L447.729+32.6801C483.056-2.61461+540.39-2.67148+575.788+32.5531Z" fill="url(#LinearGradient)" stroke-linecap="round" opacity="1" stroke-linejoin="round"/>
<g opacity="1">
<path d="M209.689+346.44L264.133+343.755C309.543+341.476+340.142+340.337+355.93+340.337C405.083+340.337+443.413+347.824+470.92+362.798C498.426+377.772+518.893+398.076+532.321+423.711C545.749+449.346+552.463+478.927+552.463+512.456C552.463+536.707+548.801+558.883+541.476+578.984C534.152+599.085+524.102+615.768+511.325+629.033C498.548+642.298+483.737+652.389+466.891+659.306C450.046+666.224+434.055+670.537+418.918+672.246C403.781+673.955+382.46+674.809+354.953+674.809L208.225+674.809L208.225+663.579L221.896+663.579C236.057+663.579+245.863+661.789+251.315+658.208C256.768+654.627+260.267+649.053+261.813+641.484C263.36+633.916+264.133+616.297+264.133+588.628L264.133+428.96C264.133+402.593+263.36+385.543+261.813+377.812C260.267+370.081+257.012+364.792+252.048+361.943C247.084+359.095+236.219+357.671+219.455+357.671L209.689+357.671L209.689+346.44ZM311.74+353.276L311.74+574.468C311.74+607.182+312.35+628.26+313.571+637.7C314.792+647.14+318.454+653.773+324.558+657.597C330.661+661.422+343.56+663.335+363.254+663.335C392.062+663.335+415.744+659.388+434.299+651.494C452.853+643.6+468.356+628.056+480.808+604.863C493.259+581.67+499.484+552.088+499.484+516.118C499.484+488.123+495.863+463.139+488.62+441.167C481.377+419.194+471.001+401.331+457.492+387.578C443.983+373.825+429.009+364.466+412.57+359.502C396.131+354.538+375.054+352.056+349.338+352.056C336.968+352.056+324.435+352.462+311.74+353.276Z" opacity="1" fill="#191919"/>
<path d="M693.088+519.048L693.088+588.628C693.088+614.669+693.698+631.719+694.919+639.775C696.14+647.832+699.435+653.813+704.807+657.72C710.178+661.626+720.269+663.579+735.08+663.579L746.066+663.579L746.066+674.809L594.455+674.809L594.455+663.579L603.244+663.579C617.404+663.579+627.211+661.789+632.663+658.208C638.115+654.627+641.574+649.053+643.039+641.484C644.504+633.916+645.236+616.297+645.236+588.628L645.236+426.274C645.236+399.907+644.504+382.899+643.039+375.249C641.574+367.599+638.319+362.309+633.273+359.38C628.228+356.45+617.323+354.985+600.558+354.985L594.455+354.985L594.455+343.755L635.959+342.29C669.162+341.151+695.041+340.581+713.596+340.581C747.775+340.581+774.102+343.266+792.575+348.638C811.048+354.009+826.185+363.53+837.985+377.202C849.785+390.874+855.685+408.126+855.685+428.96C855.685+447.026+851.657+462.977+843.6+476.811C835.544+490.646+823.988+501.144+808.933+508.306C793.877+515.467+767.388+519.048+729.465+519.048L693.088+519.048ZM693.088+506.841L716.769+506.841C735.812+506.841+751.193+504.928+762.912+501.103C774.631+497.278+784.396+489.263+792.209+477.056C800.021+464.848+803.928+449.793+803.928+431.889C803.928+404.546+797.214+384.486+783.786+371.709C770.358+358.932+748.589+352.544+718.478+352.544C707.411+352.544+698.947+352.869+693.088+353.52L693.088+506.841Z" opacity="1" fill="#191919"/>
</g>
</g>
</svg>
