<?xml version="1.0" encoding="UTF-8" standalone="no"?> <!-- Created with Vectornator for iOS (http://vectornator.io/) --><!DOCTYPE svg PUBLIC "-//W3C//DTD SVG 1.1//EN" "http://www.w3.org/Graphics/SVG/1.1/DTD/svg11.dtd">
<svg height="100%" style="fill-rule:nonzero;clip-rule:evenodd;stroke-linecap:round;stroke-linejoin:round;" xmlns:xlink="http://www.w3.org/1999/xlink" xmlns="http://www.w3.org/2000/svg" xml:space="preserve" width="100%" xmlns:vectornator="http://vectornator.io" version="1.1" viewBox="0 0 415.3 83.6">
<metadata>
<vectornator:setting key="CMYKEnabledKey" value="0"/>
<vectornator:setting key="SnapToPoints" value="0"/>
<vectornator:setting key="SnapToGuides" value="1"/>
<vectornator:setting key="GuidesVisible" value="1"/>
<vectornator:setting key="TimeLapseWatermarkDisabled" value="0"/>
<vectornator:setting key="SnapToGrid" value="0"/>
<vectornator:setting key="Units" value="Points"/>
<vectornator:setting key="doHistoryDisabled" value="0"/>
<vectornator:setting key="SnapToEdges" value="0"/>
<vectornator:setting key="DimensionsVisible" value="1"/>
<vectornator:setting key="IsolateActiveLayer" value="0"/>
<vectornator:setting key="DisplayWhiteBackground" value="0"/>
<vectornator:setting key="PencilOnly" value="0"/>
<vectornator:setting key="OutlineMode" value="0"/>
<vectornator:setting key="DynamicGuides" value="0"/>
<vectornator:setting key="RulersVisible" value="1"/>
</metadata>
<defs/>
<g id="Untitled" vectornator:layerName="Untitled">
<path d="M213.5+54.3L202.3+47.7L201.5+49C199+53+195.5+55+191.2+55C183.8+55+178.3+49.4+178.3+42.1C178.3+34.7+183.9+29.2+191.2+29.2C195.6+29.2+198.8+31.1+201.5+35.2L202.3+36.5L213.5+29.9L212.5+28.5C207.1+20.7+200.2+17+191.1+17C174+17+164.8+30+164.8+42.2C164.8+54.4+174+67.4+191.1+67.4C199.8+67.4+208+63+212.5+55.8C212.5+55.8+213.5+54.3+213.5+54.3Z" opacity="1" fill="#191919"/>
<path d="M212.9+67.2L228.3+67.2L232.9+55.8L256+55.8L260.6+67.2L276.1+67.2L248.5+0.5L234.7+0.5L238.4+9.4L212.9+67.2M244.6+26.8L250.8+42.5L238.2+42.5C238.2+42.5+244.6+26.8+244.6+26.8ZM282.5+67.3L296+67.3L296+37.3L304.8+37.3L304.8+24.7L296+24.7L296+18.8C296+16.2+297.7+13.5+300.9+13.5C302.6+13.5+303.7+13.8+304.7+14.2L306.2+14.8L311.8+2.5L310.3+2C307.8+1+304.3+0.6+301.8+0.6C295.7+0.6+290.6+2.6+287.2+6.4C284.2+9.7+282.5+14.3+282.5+19.4L282.5+24.8L276.5+24.8L276.5+37.4L282.5+37.4C282.5+37.4+282.5+67.3+282.5+67.3ZM101.1+0.1L101.1+67.1L115.8+67.2L115.8+28.8L130.1+39.4L144.3+28.8L144.3+67.2L159+67.2L159+0.1L130.1+21.9L101.1+0.1ZM335.3+17C318.3+17+309.1+29.9+309.1+42.1C309.1+54.3+318.3+67.2+335.3+67.2C343.1+67.1+350.4+63.6+356.1+57.1L345.1+51.1C342.3+54+338.8+55.5+335+55.5C329.4+55.5+324.5+51.8+323.2+46.9L360+46.9L360+43.6C360.1+25.3+345.6+17.1+335.3+17ZM323.5+36C325.3+31.4+329.1+28.8+334+28.8C339+28.8+342.9+31.4+344.9+36.1C344.9+36.1+323.5+36+323.5+36ZM390.6+17.1C373.6+17.1+364.4+30+364.4+42.2C364.4+54.4+373.6+67.3+390.6+67.3C398.4+67.2+405.7+63.7+411.4+57.2L400.4+51.2C397.6+54.1+394.1+55.6+390.3+55.6C384.7+55.6+379.8+51.9+378.5+47L415.3+47L415.3+43.7C415.4+25.4+400.9+17.1+390.6+17.1ZM378.8+36C380.6+31.4+384.4+28.7+389.3+28.8C394.3+28.8+398.2+31.4+400.2+36.1C400.2+36.1+378.8+36+378.8+36ZM36.3+16.8L0+0L0+66.8L36.3+83.6L72.6+66.8L72.6+0L36.3+16.8ZM57.8+57.3L36.4+67.2L15+57.3L15+23.3L36.4+33.2L57.8+23.3L57.8+57.3Z" opacity="1" fill="#191919"/>
</g>
</svg>
